<?xml version="1.0" encoding="utf-8"?>
<!-- Generator: Adobe Illustrator 19.0.0, SVG Export Plug-In . SVG Version: 6.00 Build 0)  -->
<svg version="1.1" id="Layer_1" xmlns="http://www.w3.org/2000/svg" xmlns:xlink="http://www.w3.org/1999/xlink" x="0px" y="0px"
	 viewBox="-15 0 608.7 480" style="enable-background:new -15 0 608.7 480;" xml:space="preserve">
<style type="text/css">
	.st0{fill:#6FC38E;}
</style>
<path id="XMLID_6_" class="st0" d="M124.8,0L-15,148.9v330.7h387.4v-31.4h-356v-287L138.3,31.4h296.8v160.4h31.3V0H124.8z"/>
<rect id="XMLID_12_" x="77.2" y="175.2" class="st0" width="287.8" height="31.4"/>
<polygon class="st0" points="365,257.9 357.6,265.4 365,272.8 365,287.8 77.2,287.8 77.2,256.4 365,256.4 "/>
<rect id="XMLID_10_" x="77.2" y="332" class="st0" width="287.8" height="31.4"/>
<path class="st0" d="M560.5,256.4V225h-31.3v-33.2H372.4V225H341v31.4h-33.2V415H341v33.4l31.4-0.2v31.4h156.8v-31.4h31.1l0.2-33.2
	h33.2V256.4H560.5z M545.8,406.7L522,430.2l-70.5-70.5L381,430.2l-23.4-23.5l70.5-70.4L365,272.8l-7.4-7.4l7.4-7.5l16-16.3
	l70.5,70.5l70.7-70.5l23.6,24.2l-70.5,70.5L545.8,406.7z"/>
</svg>
